HIERARCHY
ROOT Hips
{
	OFFSET 0.00000 0.00000 0.00000
	CHANNELS 6 Xposition Yposition Zposition Zrotation Yrotation Xrotation 
	JOINT LHipJoint
	{
		OFFSET 0 0 0
		CHANNELS 3 Zrotation Yrotation Xrotation
		JOINT LeftHip
		{
			OFFSET 1.62964 -1.40469 0.78906
			CHANNELS 3 Zrotation Yrotation Xrotation
			JOINT LeftKnee
			{
				OFFSET 2.29640 -6.30932 0.00000
				CHANNELS 3 Zrotation Yrotation Xrotation
				JOINT LeftAnkle
				{
					OFFSET 2.29451 -6.30412 0.00000
					CHANNELS 3 Zrotation Yrotation Xrotation
					JOINT LeftToe
					{
						OFFSET 0.03611 -0.09921 1.56387
						CHANNELS 3 Zrotation Yrotation Xrotation
						End Site
						{
							OFFSET 0.00000 -0.00000 0.80291
						}
					}
				}
			}
		}
	}
	JOINT RHipJoint
	{
		OFFSET 0 0 0
		CHANNELS 3 Zrotation Yrotation Xrotation
		JOINT RightHip
		{
			OFFSET -1.73712 -1.40469 0.78906
			CHANNELS 3 Zrotation Yrotation Xrotation
			JOINT RightKnee
			{
				OFFSET -2.28137 -6.26801 0.00000
				CHANNELS 3 Zrotation Yrotation Xrotation
				JOINT RightAnkle
				{
					OFFSET -2.28681 -6.28298 0.00000
					CHANNELS 3 Zrotation Yrotation Xrotation
					JOINT RightToe
					{
						OFFSET -0.15927 -0.43759 1.61103
						CHANNELS 3 Zrotation Yrotation Xrotation
						End Site
						{
							OFFSET -0.00000 -0.00000 0.84630
						}
					}
				}
			}
		}
	}
	JOINT lowerback
	{
		OFFSET 0 0 0
		CHANNELS 3 Zrotation Yrotation Xrotation
		JOINT Chest
		{
			OFFSET -0.04227 2.04338 -0.00225
			CHANNELS 3 Zrotation Yrotation Xrotation
			JOINT Chest2
			{
				OFFSET -0.02148 2.04482 -0.04273
				CHANNELS 3 Zrotation Yrotation Xrotation
				JOINT lowerneck
				{
					OFFSET 0 0 0
					CHANNELS 3 Zrotation Yrotation Xrotation
					JOINT Neck
					{
						OFFSET 0.09180 1.44629 0.19359
						CHANNELS 3 Zrotation Yrotation Xrotation
						JOINT Head
						{
							OFFSET 0.00887 1.40645 0.14750
							CHANNELS 3 Zrotation Yrotation Xrotation
							End Site
							{
								OFFSET -0.00669 1.50671 0.03707
							}
						}
					}
				}
				JOINT LeftCollar
				{
					OFFSET 0 0 0
					CHANNELS 3 Zrotation Yrotation Xrotation
					JOINT LeftShoulder
					{
						OFFSET 2.17674 1.86763 -0.06520
CHANNELS 3 Zrotation Xrotation Yrotation
						JOINT LeftElbow
						{
OFFSET 0 -4.657760 0.000000
CHANNELS 3 Zrotation Xrotation Yrotation
							JOINT LeftWrist
							{
OFFSET 0 -3.555390 0.000000
CHANNELS 3 Zrotation Xrotation Yrotation
								JOINT lhand
								{
									OFFSET 0 0 0
CHANNELS 3 Zrotation Xrotation Yrotation
									JOINT LFingers
									{
OFFSET 0 -0.707260 0.000000
CHANNELS 3 Zrotation Xrotation Yrotation
										End Site
										{
OFFSET 0 -0.570220 0.000000
										}
									}
								}
								JOINT LThumb
								{
OFFSET 0 0.000000 0.000000
CHANNELS 3 Zrotation Xrotation Yrotation
									End Site
									{
OFFSET 0 -0.578920 0.578920
									}
								}
							}
						}
					}
				}
				JOINT RightCollar
				{
					OFFSET 0 0 0
					CHANNELS 3 Zrotation Yrotation Xrotation
					JOINT RightShoulder
					{
						OFFSET -2.80694 1.55459 -0.32496
CHANNELS 3 Zrotation Xrotation Yrotation
						JOINT RightElbow
						{
OFFSET 0 -4.719250 -0.000000
CHANNELS 3 Zrotation Xrotation Yrotation
							JOINT RightWrist
							{
OFFSET 0 -3.569900 0.000000
CHANNELS 3 Zrotation Xrotation Yrotation
								JOINT rhand
								{
									OFFSET 0 0 0
CHANNELS 3 Zrotation Xrotation Yrotation
									JOINT RFingers
									{
OFFSET 0 -0.507760 0.000000
CHANNELS 3 Zrotation Xrotation Yrotation
										End Site
										{
OFFSET 0 -0.409370 0.000000
										}
									}
								}
								JOINT RThumb
								{
OFFSET 0 0.000000 0.000000
CHANNELS 3 Zrotation Xrotation Yrotation
									End Site
									{
OFFSET 0 -0.415620 0.415620
									}
								}
							}
						}
					}
				}
			}
		}
	}
}
MOTION
Frames: 16
Frame Time: .0083333
8.8968 16.3637 31.2031 179.6270 -1.0145 -155.7550 0.0000 0.0000 0.0000 -17.5648 -15.3109 -18.2491 0.1646 2.6138 7.2053 0.2162 1.0332 -9.2220 5.3831 -13.8027 -42.4527 0.0000 0.0000 0.0000 17.8094 12.9374 -18.9792 -0.1610 -2.5853 7.1261 -1.8797 4.0378 -24.9624 -0.2909 3.4683 -9.5853 -4.7342 -0.7473 -24.3986 -0.5821 -0.3816 -3.0672 1.8910 -0.6598 10.2175 -2.5752 -3.0964 -0.9652 5.9883 -4.6396 -14.5322 2.6876 -2.8708 -4.4346 0.0000 -0.0000 0.0000 3.3036 -1.5745 -14.6944 7.5755 -12.8624 0.8551 21.8943 11.0143 9.9604 0.0 0.0 0.0 -7.1250 0.0 0.0 -3.6279 19.274 -2.2315 0.0000 -0.0000 0.0000 2.2075 2.5925 4.7119 -12.0025 -19.8084 -2.1031 -12.8267 17.6062 55.1498 0.0 0.0 0.0 7.1250 0.0 -0.0 75.1905 76.5138 -61.4089
8.9056 16.3592 31.1638 180.3070 -1.8979 -156.8830 0.0000 0.0000 0.0000 -16.5669 -15.1916 -16.9814 0.1593 2.5719 7.0890 0.2153 0.9210 -9.1491 5.2364 -13.6452 -41.8343 0.0000 0.0000 0.0000 18.9602 14.4379 -16.5423 -0.1335 -2.3551 6.4881 -1.9345 1.3784 -25.9265 -0.3681 3.8973 -10.7880 -4.0281 -0.8842 -23.7135 -0.3165 -0.6989 -2.6803 1.6886 -0.7498 10.3130 -2.6639 -3.0524 -0.9466 6.0645 -4.5636 -14.4423 2.7248 -2.8269 -4.4061 0.0000 -0.0000 0.0000 3.3473 -1.9166 -11.415 6.8529 -11.6769 0.7016 21.6729 13.1313 12.0605 0.0 0.0 0.0 -7.1250 0.0 0.0 -3.8503 17.05 -2.558 0.0000 -0.0000 0.0000 2.227 2.7496 3.7314 -11.6822 -19.3264 -1.9959 -14.5478 19.2865 54.4365 0.0 0.0 0.0 7.1250 0.0 -0.0 71.8601 77.0534 -58.8331
8.8991 16.3530 31.1496 180.3930 -1.6191 -156.7080 0.0000 0.0000 0.0000 -16.4957 -15.2909 -16.9645 0.1518 2.5104 6.9186 0.2134 1.2959 -9.2979 5.2685 -13.6799 -41.9700 0.0000 0.0000 0.0000 18.9096 14.8683 -16.6913 -0.1411 -2.4210 6.6706 -1.9523 1.3610 -26.0532 -0.3438 3.7674 -10.4232 -3.8994 -0.7653 -24.0963 -0.3432 -0.5665 -2.6657 1.6229 -0.6901 10.5253 -2.6895 -3.0456 -0.9467 6.0939 -4.5522 -14.4405 2.7393 -2.8215 -4.4050 -0.0000 0.0000 0.0000 3.3836 -2.0198 -8.0359 6.3947 -10.9188 0.6118 21.9968 15.6713 13.664 0.0 0.0 0.0 -7.1250 0.0 0.0 -3.6949 15.3088 -2.5937 -0.0000 0.0000 0.0000 2.2531 2.7939 2.5455 -11.3333 -18.7973 -1.8819 -16.2716 21.2808 53.6335 0.0 0.0 0.0 7.1250 0.0 -0.0 67.9347 77.5566 -55.6973
8.8964 16.3506 31.1944 179.7350 -0.8709 -154.9640 0.0000 0.0000 0.0000 -17.1715 -15.4184 -19.2637 0.1737 2.6847 7.4021 0.2222 1.0415 -9.3457 5.3767 -13.7959 -42.4258 0.0000 0.0000 0.0000 17.5398 14.6641 -19.6219 -0.1843 -2.7650 7.6253 -1.9449 2.7811 -25.6543 -0.3411 3.7532 -10.3834 -4.6644 -0.7014 -25.2340 -0.5963 -0.3548 -3.2210 1.8350 -0.6721 10.4822 -2.6607 -3.1066 -1.1191 6.1665 -4.6330 -14.3744 2.7522 -2.8671 -4.3419 0.0000 -0.0000 0.0000 3.4755 -1.8839 -5.3093 6.1669 -10.5403 0.5694 22.2959 17.4086 15.2363 0.0 0.0 0.0 -7.1250 0.0 0.0 -3.5759 13.5994 -2.6401 0.0000 -0.0000 0.0000 2.3228 2.8129 1.0338 -10.9490 -18.2101 -1.76 -17.758 23.2175 52.4326 0.0 0.0 0.0 7.1250 0.0 -0.0 62.0648 77.8129 -50.5775
8.8920 16.3487 31.1712 179.6160 -1.0616 -155.0940 0.0000 0.0000 0.0000 -17.3583 -15.2450 -19.0713 0.1722 2.6733 7.3706 0.2280 0.6881 -9.2960 5.4063 -13.8272 -42.5496 0.0000 0.0000 0.0000 17.4261 14.8024 -19.1816 -0.1780 -2.7179 7.4944 -1.9676 2.4712 -25.8783 -0.3466 3.7830 -10.4670 -4.7041 -0.7927 -25.3473 -0.6290 -0.4390 -3.1296 1.7911 -0.7122 10.6520 -2.6898 -3.0123 -1.0634 6.0982 -4.4995 -14.3039 2.7294 -2.7902 -4.3348 0.0000 0.0000 0.0000 3.7486 -1.3539 -5.7415 6.2168 -10.6233 0.5786 22.1389 16.1561 16.1847 0.0 0.0 0.0 -7.1250 0.0 0.0 -3.7393 12.6097 -2.839 0.0000 0.0000 0.0000 2.3635 2.8084 -0.2775 -10.5579 -17.6075 -1.6397 -19.2054 24.697 51.326 0.0 0.0 0.0 7.1250 0.0 -0.0 56.4545 77.9964 -45.7318
8.8798 16.3378 31.1551 179.7750 -0.7011 -154.7610 0.0000 0.0000 0.0000 -17.1838 -15.3636 -19.2510 0.1660 2.6246 7.2354 0.2221 1.1289 -9.3876 5.2785 -13.6908 -42.0126 0.0000 0.0000 0.0000 17.3459 15.1690 -19.6641 -0.1943 -2.8388 7.8303 -1.2140 0.5663 -20.6572 -2.0737 9.0180 -25.8517 -4.4232 -0.5814 -25.9809 -0.7050 -0.2184 -3.1107 1.6127 -0.6120 10.9935 -2.9212 -2.8932 -1.3924 6.2968 -4.3004 -13.8937 2.8066 -2.6720 -4.1248 0.0000 -0.0000 0.0000 4.3914 -0.1164 -11.3528 6.8771 -11.7167 0.7065 21.5872 10.8543 15.0524 0.0 0.0 0.0 -7.1250 0.0 0.0 -4.0442 13.878 -2.9636 0.0000 -0.0000 0.0000 2.4211 2.6373 -1.5909 -10.1429 -16.9627 -1.5164 -22.0147 27.2717 49.8157 0.0 0.0 0.0 7.1250 0.0 -0.0 47.9652 78.458 -38.7394
8.8762 16.3382 31.1438 179.8160 -0.5827 -154.8320 0.0000 0.0000 0.0000 -17.1889 -15.4391 -18.9388 0.1558 2.5433 7.0099 0.2145 1.3959 -9.3732 5.2011 -13.6068 -41.6845 0.0000 0.0000 0.0000 17.3420 15.4492 -19.5038 -0.1981 -2.8662 7.9066 -1.2282 0.4320 -20.8211 -2.0969 9.0651 -25.9993 -4.4288 -0.4944 -25.9617 -0.7590 -0.0895 -3.0696 1.5999 -0.5494 11.0226 -2.7439 -2.8370 -1.7135 6.1818 -4.2164 -13.5596 2.7081 -2.6201 -3.9515 0.0000 -0.0000 0.0000 4.6324 -0.1878 -9.1578 6.4054 -10.9365 0.6138 21.1101 13.9228 13.2608 0.0 0.0 0.0 -7.1250 0.0 0.0 -4.2862 15.8289 -2.963 0.0000 -0.0000 0.0000 2.5266 2.5617 -3.1891 -9.7745 -16.386 -1.4107 -22.625 28.4968 49.332 0.0 0.0 0.0 7.1250 0.0 -0.0 45.3978 78.4521 -36.5324
8.8740 16.3376 31.1372 179.8070 -0.5445 -154.7750 0.0000 0.0000 0.0000 -17.2064 -15.4897 -18.8915 0.1507 2.5018 6.8946 0.2102 1.5413 -9.3668 5.3482 -13.7655 -42.3062 0.0000 0.0000 0.0000 17.2968 15.5308 -19.5951 -0.2037 -2.9064 8.0183 -1.2319 0.3301 -20.8855 -2.1119 9.0955 -26.0944 -4.5387 -0.6204 -25.9991 -0.5973 -0.2507 -3.1231 1.7892 -0.6352 10.9908 -2.9138 -2.6927 -1.7328 6.0759 -4.0295 -13.5273 2.6969 -2.5120 -3.9454 -0.0000 0.0000 0.0000 4.4509 -0.0978 -6.0874 5.9646 -10.2031 0.533 21.2989 16.3987 13.7182 0.0 0.0 0.0 -7.1250 0.0 0.0 -4.1756 15.3246 -2.9315 -0.0000 0.0000 0.0000 2.2213 2.6369 -4.1998 -9.4729 -15.9109 -1.3268 -22.9876 29.5685 49.5093 0.0 0.0 0.0 7.1250 0.0 -0.0 45.8391 78.7023 -37.118
8.8716 16.3364 31.1298 179.8200 -0.5462 -154.7470 0.0000 0.0000 0.0000 -17.1966 -15.5115 -18.8652 0.1491 2.4879 6.8560 0.2120 1.6167 -9.4450 5.4447 -13.8678 -42.7103 0.0000 0.0000 0.0000 17.3332 15.2754 -19.7454 -0.2077 -2.9342 8.0956 -1.2223 0.4473 -20.7661 -2.1451 9.1619 -26.3031 -4.5878 -0.6558 -26.0538 -0.5324 -0.2877 -3.1199 1.8773 -0.6569 11.0260 -2.9047 -2.6322 -1.7852 5.9987 -3.9611 -13.5751 2.6677 -2.4784 -3.9575 0.0000 -0.0000 0.0000 4.5047 -0.061 -4.0451 5.6308 -9.6449 0.4754 21.4021 18.0755 13.7732 0.0 0.0 0.0 -7.1250 0.0 0.0 -4.1074 15.2555 -2.8895 0.0000 -0.0000 0.0000 2.1453 2.6971 -5.2934 -9.2800 -15.6056 -1.2744 -23.4043 30.6644 49.8114 0.0 0.0 0.0 7.1250 0.0 -0.0 46.8271 79.041 -38.2531
8.8708 16.3333 31.1211 179.8800 -0.6283 -154.8350 0.0000 0.0000 0.0000 -17.1220 -15.4833 -18.7437 0.1485 2.4833 6.8433 0.2136 1.5377 -9.4321 5.2887 -13.7017 -42.0556 0.0000 0.0000 0.0000 17.4613 15.1877 -19.6394 -0.2057 -2.9203 8.0570 -1.2096 0.2595 -20.7172 -2.2791 9.4248 -27.1334 -4.5317 -0.6534 -26.0225 -0.5166 -0.2922 -3.0754 1.8618 -0.6538 11.0613 -2.8723 -2.6021 -1.8372 5.9449 -3.9245 -13.5530 2.6401 -2.4587 -3.9428 -0.0000 0.0000 0.0000 4.7009 -0.014 -2.4016 5.3478 -9.1702 0.4292 21.4437 19.6591 13.4597 0.0 0.0 0.0 -7.1250 0.0 0.0 -4.0651 15.584 -2.8308 -0.0000 0.0000 0.0000 2.1978 2.7991 -6.3833 -9.1384 -15.3807 -1.2366 -24.3434 32.1895 50.5216 0.0 0.0 0.0 7.1250 0.0 -0.0 49.5011 79.7998 -41.2392
8.8696 16.3321 31.1114 179.9200 -0.6861 -154.8980 0.0000 0.0000 0.0000 -17.1038 -15.2524 -18.7502 0.1508 2.5020 6.8953 0.2191 1.2547 -9.3912 5.1095 -13.5060 -41.2935 0.0000 0.0000 0.0000 17.5407 15.3084 -19.4426 -0.2004 -2.8828 7.9527 -1.1971 -0.0959 -20.7281 -2.4526 9.7513 -28.1750 -4.4688 -0.6851 -26.0254 -0.4945 -0.3489 -3.0550 1.8309 -0.6768 11.0904 -2.9035 -2.5972 -1.7599 5.9648 -3.9163 -13.5897 2.6563 -2.4550 -3.9705 0.0000 -0.0000 0.0000 4.8197 0.017 -2.1686 5.0119 -8.6045 0.3773 21.7378 19.9168 12.8743 0.0 0.0 0.0 -7.1250 0.0 0.0 -3.8375 16.1768 -2.6224 0.0000 -0.0000 0.0000 2.1729 2.9531 -7.2021 -8.9640 -15.103 -1.1907 -25.4569 33.963 51.6932 0.0 0.0 0.0 7.1250 0.0 -0.0 55.2405 80.7804 -47.2603
8.8669 16.3328 31.1013 179.9290 -0.6606 -154.9220 0.0000 0.0000 0.0000 -17.1462 -15.0146 -18.8061 0.1552 2.5388 6.9974 0.2282 1.0050 -9.4476 5.0077 -13.3924 -40.8558 0.0000 0.0000 0.0000 17.5588 15.2894 -19.3481 -0.1971 -2.8587 7.8857 -1.1855 -0.1590 -20.6494 -2.5053 9.8475 -28.4844 -4.4625 -0.7104 -26.0746 -0.4642 -0.3814 -3.0316 1.8497 -0.6926 11.1457 -2.9135 -2.6120 -1.6943 5.9957 -3.9437 -13.7141 2.6764 -2.4760 -4.0259 -0.0000 -0.0000 0.0000 4.8738 -0.0306 -1.9235 4.6628 -8.0146 0.3268 22.0191 19.968 12.6342 0.0 0.0 0.0 -7.1250 0.0 0.0 -3.6327 16.405 -2.4639 -0.0000 -0.0000 0.0000 2.0658 3.0756 -7.6856 -8.7987 -14.839 -1.148 -26.0816 34.8797 52.0878 0.0 0.0 0.0 7.1250 0.0 -0.0 57.4157 81.1901 -49.6288
8.8634 16.3327 31.0925 179.9610 -0.6319 -154.9220 0.0000 0.0000 0.0000 -17.1124 -15.0728 -18.7834 0.1583 2.5636 7.0661 0.2344 0.9547 -9.5427 4.7342 -13.0781 -39.6616 0.0000 0.0000 0.0000 17.5888 15.2677 -19.3373 -0.1971 -2.8589 7.8862 -1.1748 -0.2338 -20.5818 -2.5712 9.9663 -28.8676 -4.4535 -0.7044 -26.1079 -0.4300 -0.3738 -3.0074 1.8856 -0.6891 11.1908 -2.8865 -2.5948 -1.8176 5.9588 -3.9308 -13.7179 2.6549 -2.4718 -4.0053 -0.0000 0.0000 0.0000 4.9492 -0.0404 -1.7614 4.3872 -7.5474 0.2895 22.1315 20.0762 12.3812 0.0 0.0 0.0 -7.1250 0.0 0.0 -3.5440 16.6642 -2.3835 -0.0000 0.0000 0.0000 1.9674 3.1501 -8.1887 -8.6662 -14.6269 -1.1143 -26.3386 35.2775 52.0471 0.0 0.0 0.0 7.1250 0.0 -0.0 57.0973 81.2892 -49.4281
8.8595 16.3303 31.0855 179.9730 -0.6040 -154.8550 0.0000 0.0000 0.0000 -17.0880 -15.2205 -18.7699 0.1568 2.5516 7.0326 0.2354 1.0010 -9.5850 4.5448 -12.8521 -38.8174 0.0000 0.0000 0.0000 17.5532 15.4222 -19.3819 -0.2007 -2.8846 7.9577 -1.1741 -0.4210 -20.6430 -2.7027 10.1974 -29.6185 -4.4643 -0.6876 -26.1711 -0.4240 -0.3470 -3.0008 1.9074 -0.6786 11.2301 -2.8287 -2.5859 -2.0038 5.9348 -3.9212 -13.6217 2.6264 -2.4669 -3.9366 0.0000 -0.0000 0.0000 5.0937 -0.1045 -1.6417 4.0558 -6.9841 0.2476 22.4918 20.4153 12.097 0.0 0.0 0.0 -7.1250 0.0 0.0 -3.2815 16.9333 -2.1871 0.0000 -0.0000 0.0000 1.9555 3.1343 -9.5082 -8.4946 -14.3513 -1.0714 -27.7742 37.61 52.8781 0.0 0.0 0.0 7.1250 0.0 -0.0 62.5879 82.1458 -55.3468
8.8598 16.3286 31.0816 180.0090 -0.5522 -154.8200 0.0000 0.0000 0.0000 -17.0765 -15.0620 -18.8112 0.1552 2.5385 6.9964 0.2325 0.9246 -9.4932 4.6933 -13.0299 -39.4803 0.0000 0.0000 0.0000 17.6031 15.5095 -19.4354 -0.2066 -2.9268 8.0752 -1.1853 -0.3397 -20.7112 -2.7217 10.2303 -29.7256 -4.5295 -0.6811 -26.1651 -0.3845 -0.3239 -2.9999 1.9977 -0.6715 11.2265 -2.8549 -2.5588 -2.1437 5.9186 -3.8806 -13.4938 2.6155 -2.4396 -3.8661 0.0000 -0.0000 0.0000 5.1632 -0.3102 -1.5102 3.7533 -6.4686 0.2122 22.2525 20.4538 11.4489 0.0 0.0 0.0 -7.1250 0.0 0.0 -3.4226 17.6502 -2.2277 0.0000 -0.0000 0.0000 1.9354 3.0811 -11.0724 -8.3217 -14.073 -1.0289 -29.3257 40.2215 53.4465 0.0 0.0 0.0 7.1250 0.0 -0.0 67.4843 82.9138 -60.7417
8.8532 16.3248 31.0725 180.0430 -0.5822 -154.7940 0.0000 0.0000 0.0000 -17.0466 -15.1680 -18.7648 0.1551 2.5376 6.9938 0.2275 1.0785 -9.4698 4.9283 -13.3025 -40.5118 0.0000 0.0000 0.0000 17.6378 15.1880 -19.5582 -0.2076 -2.9333 8.0932 -1.2050 0.0658 -20.7415 -2.5739 9.9711 -28.8831 -4.4980 -0.7034 -26.2524 -0.3293 -0.3603 -2.9732 2.0286 -0.6891 11.3063 -2.8911 -2.4997 -2.2202 5.8672 -3.8007 -13.4142 2.5975 -2.3924 -3.8274 0.0000 0.0000 0.0000 5.1605 -0.5609 -1.3114 3.3986 -5.8625 0.1741 22.1253 20.361 11.1288 0.0 0.0 0.0 -7.1250 0.0 0.0 -3.5003 18.0044 -2.2512 0.0000 0.0000 0.0000 1.8669 3.0985 -11.5945 -8.2385 -13.9388 -1.0088 -28.4665 39.562 52.5489 0.0 0.0 0.0 7.1250 0.0 -0.0 60.2810 82.3731 -53.3977
